PathFileType	4	(X/Y/Z)	TVC_36_BWA_02_walk_RCNL2025.trc
DataRate	CameraRate	NumFrames	NumMarkers	Units	OrigDataRate	OrigDataStartFrame	OrigNumFrames
100	100	13	27	mm	100	122	487
Frame#	Time	R_Shoulder			L_Shoulder			C7			J_Notch			R_Elbow			L_Elbow			R_Wrist			L_Wrist			R_Asis			L_Asis			R_Psis			L_Psis			Sacral			Thoracic			Sternum			R_Thigh_Lateral			R_Knee_Lateral			R_Shank_Lateral			R_Ankle_Lateral			R_Heel			R_Toe			L_Thigh_Lateral			L_Knee_Lateral			L_Shank_Lateral			L_Ankle_Lateral			L_Heel			L_Toe		
		X1	Y1	Z1	X2	Y2	Z2	X3	Y3	Z3	X4	Y4	Z4	X5	Y5	Z5	X6	Y6	Z6	X7	Y7	Z7	X8	Y8	Z8	X9	Y9	Z9	X10	Y10	Z10	X11	Y11	Z11	X12	Y12	Z12	X13	Y13	Z13	X14	Y14	Z14	X15	Y15	Z15	X16	Y16	Z16	X17	Y17	Z17	X18	Y18	Z18	X19	Y19	Z19	X20	Y20	Z20	X21	Y21	Z21	X22	Y22	Z22	X23	Y23	Z23	X24	Y24	Z24	X25	Y25	Z25	X26	Y26	Z26	X27	Y27	Z27
122	1.21000000	155.763489	1395.610840	642.608582	36.634010	1372.862305	311.402649	61.170147	1440.044556	491.580780	208.405045	1315.311157	451.225708	143.703995	1154.645752	813.239563	3.032674	1079.928955	213.330658	281.600685	985.821747	871.975067	185.354118	974.400940	268.651443	192.749146	904.833618	599.577820	99.557930	925.466919	357.070587	2.516452	927.746826	584.334473	-34.898502	925.601624	509.277863	-16.191025	926.674225	546.806168	10.422870	1161.948730	530.897949	237.467453	1163.378784	430.723724	166.260223	628.491089	666.241089	153.290192	453.799622	575.689453	95.474098	256.302826	624.306641	52.546532	69.486198	552.529846	3.936214	57.508095	504.138000	174.197861	41.565468	521.067444	108.027794	720.801025	228.658417	189.521637	530.375427	230.067245	128.683899	341.380157	160.727295	181.582703	126.974411	165.366852	147.392899	100.482086	213.634399	313.998932	109.513908	169.638535
123	1.22000000	156.836761	1395.018311	643.015808	37.139866	1372.270264	312.056091	62.017525	1439.552246	492.135559	209.139328	1314.600220	451.548523	145.904831	1153.975342	813.668335	3.043427	1079.728638	213.054550	285.457123	986.000519	870.979797	185.777008	973.762390	266.249260	194.182297	904.665649	600.021973	100.798119	925.021851	357.654175	3.762424	926.528198	584.699341	-33.456081	924.081482	509.597900	-14.846828	925.304840	547.148621	11.176207	1161.452393	531.530884	238.060242	1162.732178	431.050537	168.771118	628.144714	665.998047	155.154388	453.427002	575.586792	96.280373	256.011505	624.052124	52.559544	69.462540	552.423401	3.935817	57.488102	504.001221	174.147308	41.612865	521.071472	112.391106	722.003845	228.127197	197.630585	532.981384	228.987549	140.951965	343.008667	158.960434	198.863831	129.669281	162.836502	165.077103	102.555374	211.131317	331.622070	115.111176	167.113602
124	1.23000000	157.885208	1394.358521	643.423889	37.669682	1371.657104	312.679565	62.838184	1439.021118	492.690094	209.873672	1313.852539	451.863281	148.053909	1153.195679	814.045837	3.085982	1079.507568	212.719513	289.321457	986.086151	869.757263	186.205292	973.131165	263.877419	195.606476	904.473022	600.429443	102.188171	924.443604	358.178955	4.952437	925.255737	584.945312	-31.948454	922.470459	509.753235	-13.498008	923.863098	547.349274	11.930040	1160.900024	532.090698	238.665756	1162.052124	431.364227	171.299286	627.769592	665.717651	157.129883	453.020691	575.428772	97.138016	255.715897	623.764099	52.560490	69.443970	552.299866	3.946394	57.450478	503.841370	174.087936	41.664398	521.077698	116.829155	723.101868	227.591507	205.805664	535.562073	228.037674	153.187698	344.655182	157.517899	215.888840	132.438751	160.889938	182.405869	104.887672	209.211075	348.883789	120.641510	165.335007
125	1.24000000	158.921448	1393.640747	643.829285	38.229012	1371.027100	313.269775	63.641121	1438.457764	493.239136	210.616257	1313.076660	452.164917	150.160080	1152.317139	814.371216	3.159392	1079.266113	212.334305	293.178055	986.085083	868.314545	186.640068	972.516174	261.557503	197.028778	904.258911	600.803711	103.777222	923.726746	358.617828	6.097830	923.942383	585.065369	-30.332199	920.772583	509.720886	-12.117185	922.357483	547.393127	12.692003	1160.296265	532.568054	239.295029	1161.344116	431.667847	173.826324	627.370850	665.410156	159.198227	452.581238	575.225098	98.046715	255.421295	623.452515	52.549881	69.431786	552.159973	3.966279	57.401024	503.659882	174.022186	41.717979	521.085754	121.311981	724.063171	227.067245	214.021561	538.104187	227.231674	165.303375	346.305145	156.429749	232.550354	135.257446	159.529465	199.299988	107.410301	207.881378	365.699677	126.065933	164.236145
126	1.25000000	159.953979	1392.875366	644.228943	38.823696	1370.385010	313.823486	64.440933	1437.867188	493.773956	211.376083	1312.282593	452.450256	152.230972	1151.350342	814.642212	3.265030	1079.006104	211.908554	297.013931	986.005341	866.658142	187.083237	971.923096	259.308487	198.460083	904.027466	601.147156	105.604576	922.874878	358.941406	7.221375	922.600159	585.053589	-28.562014	918.992859	509.481598	-10.670319	920.796509	547.267593	13.472590	1159.645264	532.951782	239.960175	1160.615479	431.964783	176.338745	626.954834	665.084961	161.336197	452.110931	574.988159	99.002495	255.130966	623.130310	52.529705	69.426643	552.006409	3.992625	57.347076	503.460144	173.952698	41.771278	521.096130	125.817070	724.859314	226.566666	222.252686	540.591675	226.580948	177.222794	347.941132	155.715729	248.754639	138.094681	158.749969	215.690628	110.051781	207.140488	381.996033	131.343048	163.754211
127	1.26000000	160.987686	1392.073730	644.620422	39.460262	1369.736450	314.337311	65.257713	1437.252319	494.282532	212.162613	1311.481934	452.717957	154.272141	1150.305420	814.855103	3.406685	1078.731201	211.453079	300.818146	985.856049	864.794891	187.537079	971.354126	257.147003	199.914001	903.783386	601.460876	107.693550	921.902649	359.123810	8.355955	921.239624	584.905090	-26.600666	917.140930	509.024719	-9.122355	919.190277	546.964905	14.284397	1158.951416	533.230652	240.673691	1159.875610	432.258575	178.827789	626.528748	664.751038	163.516174	451.614227	574.733032	99.996834	254.846588	622.813171	52.503006	69.428261	551.843506	4.022205	57.296169	503.247192	173.882095	41.821857	521.110352	130.332184	725.468750	226.098389	230.472519	543.005371	226.095276	188.885757	349.543121	155.382660	264.423981	140.914398	158.539413	231.518723	112.741302	206.977432	397.711151	136.428024	163.837433
128	1.27000000	162.024887	1391.247803	645.001404	40.146320	1369.087158	314.807831	66.115112	1436.615601	494.750702	212.985474	1310.686157	452.968170	156.286896	1149.192261	815.005066	3.590335	1078.447021	210.979630	304.581421	985.647064	862.732361	188.003975	970.808167	255.087677	201.405151	903.531616	601.745056	110.046532	920.836670	359.148376	9.541179	919.869873	584.617004	-24.427828	915.233765	508.351746	-7.443325	917.551819	546.484375	15.141169	1158.220581	533.394714	241.448013	1159.135376	432.552063	181.287872	626.100769	664.417419	165.707138	451.097473	574.476929	101.016129	254.569336	622.518677	52.473221	69.435493	551.677246	4.052157	57.254707	503.027344	173.812775	41.867386	521.131165	134.856918	725.880371	225.668076	238.653488	545.323059	225.783752	200.249359	351.088623	155.423935	279.497314	143.675522	158.878784	246.734741	115.411041	207.371826	412.796417	141.272415	164.449127
129	1.28000000	163.066727	1390.410278	645.369751	40.890900	1368.443970	315.231567	67.037041	1435.960205	495.163971	213.854126	1309.906982	453.202087	158.276535	1148.020020	815.085999	3.823683	1078.161011	210.500549	308.295685	985.388885	860.479553	188.486137	970.281494	253.143394	202.947174	903.276672	601.999390	112.642487	919.714966	359.011505	10.818667	918.499084	584.188782	-22.045898	913.297363	507.477814	-5.613616	915.898224	545.833298	16.056969	1157.459717	533.436646	242.295181	1158.406372	432.847168	183.714203	625.679382	664.093018	167.876129	450.568939	574.237305	102.041527	254.300766	622.264343	52.443340	69.446472	551.514282	4.080425	57.226887	502.807251	173.746643	41.905952	521.162170	139.402878	726.095947	225.279434	246.766815	547.519592	225.655579	211.286148	352.552979	155.820908	293.929718	146.332962	159.741699	261.298828	117.997551	208.293976	427.216064	145.824860	165.568237
130	1.29000000	164.114578	1389.573364	645.723145	41.704510	1367.813843	315.604950	68.043976	1435.291260	495.509796	214.777603	1309.155396	453.421295	160.240891	1146.797974	815.091370	4.115532	1077.881104	210.027771	311.953644	985.092194	858.046631	188.985680	969.768372	251.325920	204.550751	903.022827	602.222290	115.438416	918.584961	358.723694	12.226927	917.135254	583.622498	-19.481007	911.366638	506.430573	-3.627040	914.250946	545.026535	17.045515	1156.677002	533.352234	243.226669	1157.700928	433.144196	186.100449	625.273132	663.786194	169.990189	450.037872	574.030090	103.049400	254.043625	622.065186	52.415222	69.459114	551.361084	4.105804	57.214108	502.592834	173.684952	41.936333	521.207336	143.992172	726.130310	224.935440	254.782639	549.567505	225.719925	221.980072	353.909454	156.545609	307.690308	148.839005	161.094116	275.180389	120.442535	209.705185	440.946472	150.032654	167.186539
131	1.30000000	165.171249	1388.749146	646.059143	42.598934	1367.203735	315.924622	69.149940	1434.616821	495.779297	215.764282	1308.441040	453.627319	162.178909	1145.534790	815.014099	4.475156	1077.614624	209.571793	315.548660	984.767975	855.444885	189.504936	969.261719	249.646278	206.222046	902.773376	602.411255	118.375908	917.499451	358.307281	13.796597	915.787292	582.922913	-16.778149	909.483032	505.246094	-1.490776	912.635162	544.084503	18.119637	1155.881714	533.140442	244.253265	1157.031006	433.442047	188.437042	624.889832	663.503906	172.018829	449.513824	573.867371	104.012695	253.801910	621.930603	52.389156	69.471565	551.223145	4.127702	57.214905	502.388489	173.628174	41.958145	521.270752	148.654449	726.009766	224.639572	262.669983	551.437622	225.985489	232.321259	355.129700	157.564285	320.759644	151.145111	162.894577	288.357544	122.693283	211.558914	453.974213	153.843933	169.303238
132	1.31000000	166.241318	1387.948730	646.375122	43.586731	1366.619995	316.187531	70.360855	1433.947144	495.968292	216.821701	1307.772583	453.820923	164.089005	1144.239014	814.847290	4.911782	1077.367798	209.140732	319.074692	984.426910	852.686432	190.046844	968.753906	248.115257	207.962158	902.530640	602.562561	121.392006	916.510193	357.791351	15.546645	914.465637	582.097473	-13.991183	907.689392	503.962891	0.777731	911.077515	543.030182	19.290592	1155.082275	532.803833	245.384995	1156.407959	433.738525	190.711365	624.535828	663.250732	173.936752	449.005646	573.755432	104.903427	253.580399	621.862244	52.363899	69.482697	551.103699	4.145800	57.225380	502.196411	173.575974	41.971844	521.355408	153.422653	725.768555	224.396835	270.397064	553.099548	226.459549	242.301193	356.183990	158.841125	333.126282	153.203918	165.095474	300.815887	124.702881	213.802795	466.293304	157.210373	171.918167
133	1.32000000	167.330917	1387.181519	646.668030	44.680531	1366.068115	316.390991	71.674522	1433.293335	496.077606	217.956543	1307.156738	454.002106	165.969437	1142.918823	814.584778	5.434247	1077.144165	208.739914	322.526413	984.079468	849.783508	190.615326	968.236969	246.743294	209.767700	902.295410	602.671753	124.431923	915.660706	357.205841	17.481960	913.182556	581.155701	-11.170596	906.023987	502.615356	3.155682	909.603271	541.885529	20.567064	1154.286499	532.348083	246.631119	1155.841675	434.030823	192.909500	624.215027	663.028015	175.726761	448.520508	573.694153	105.696220	253.383804	621.852966	52.337086	69.492393	551.003845	4.159816	57.240025	502.016235	173.527328	41.978455	521.462952	158.328156	725.442871	224.214478	277.931366	554.522339	227.147156	251.908905	357.041840	160.341415	344.783508	154.971268	167.645233	312.546906	126.430290	216.381454	477.902649	160.089600	175.024963
134	1.33000000	168.446671	1386.454590	646.934753	45.892223	1365.552246	316.533081	73.081749	1432.666626	496.112396	219.174820	1306.599121	454.169861	167.818634	1141.582153	814.222229	6.050838	1076.945068	208.371857	325.899597	983.735229	846.748749	191.215462	967.703064	245.540314	211.632339	902.066895	602.734436	127.459526	914.980164	356.576416	19.592762	911.951843	580.109070	-8.353166	904.514709	501.228455	5.619798	908.233276	540.668762	21.953712	1153.500000	531.781860	248.000076	1155.340088	434.316132	195.019363	623.928528	662.833069	177.381821	448.063110	573.676880	106.372231	253.215637	621.887634	52.305943	69.501556	550.922241	4.169471	57.252861	501.845490	173.480713	41.979256	521.593323	163.395447	725.064819	224.102127	285.240021	555.675110	228.050446	261.128906	357.672455	162.034058	355.726318	156.407913	170.491211	323.546204	127.840279	219.239563	488.803040	162.447357	178.605804
